<svg xmlns="http://www.w3.org/2000/svg" viewBox="-105.607 -104.027 418.264 418.264">
  <rect x="-105.607" y="-104.027" width="418.264" height="418.264" rx="83.653" fill="#0b0b0b"/>
  <path fill="#f06022" d="M243.85,255.68h0c-.05-.1-.12-.18-.17-.27-.37-.59-.76-1.18-1.16-1.76-.09-.12-.17-.25-.26-.38-.84-1.18-1.74-2.32-2.71-3.43l-.02.03c-.62-.7-1.28-1.39-1.96-2.05l-17.49,33.7-15.52.73-8.4-13.07,17.55-33.81c-1.05-.2-2.1-.36-3.16-.46v-.03c-15.27-1.58-30,5.17-36.8,18.35-6.16,11.94-4.24,26.1,3.72,37.24l-14.99,36.99,17.35-2.67,7.45-1.15.53-.08,5.71,37.04,2.08-5.76,18.25-45.47c12.84.22,25.17-5.49,32.09-18.91,5.72-11.08,4.48-24.08-2.08-34.8Z"/>
</svg>